<?xml version="1.0" standalone="no"?>
<!DOCTYPE svg PUBLIC "-//W3C//DTD SVG 20010904//EN"
 "http://www.w3.org/TR/2001/REC-SVG-20010904/DTD/svg10.dtd">
<svg version="1.0" xmlns="http://www.w3.org/2000/svg"
 width="700.000000pt" height="700.000000pt" viewBox="0 0 700.000000 700.000000"
 preserveAspectRatio="xMidYMid meet">
<metadata>
Created by potrace 1.11, written by Peter Selinger 2001-2013
</metadata>
<g transform="translate(0.000000,700.000000) scale(0.100000,-0.100000)"
fill="#E53935" stroke="none">
<path d="M3308 6995 c-2 -1 -43 -5 -93 -9 -49 -3 -100 -8 -112 -10 -12 -3 -48
-7 -80 -11 -81 -9 -321 -58 -428 -89 -536 -151 -964 -379 -1400 -746 -53 -44
-299 -293 -351 -355 -125 -148 -292 -387 -386 -555 -177 -314 -330 -732 -391
-1070 -8 -41 -19 -104 -23 -125 -2 -11 -7 -47 -10 -80 -3 -33 -7 -65 -9 -71
-24 -75 -24 -576 0 -754 2 -14 6 -46 9 -72 3 -26 8 -58 10 -70 3 -13 8 -40 11
-61 29 -207 144 -596 235 -794 11 -24 20 -45 20 -48 0 -18 145 -294 213 -405
65 -106 241 -358 266 -380 3 -3 33 -36 65 -75 85 -100 285 -298 391 -386 330
-274 684 -477 1088 -623 92 -33 253 -83 297 -91 13 -2 37 -9 54 -14 32 -10
154 -36 223 -47 21 -3 43 -7 48 -8 40 -9 140 -22 259 -33 159 -15 601 -7 691
12 11 2 43 7 70 10 96 11 231 36 355 66 136 33 421 126 505 165 30 13 56 24
59 24 3 0 63 27 132 60 700 334 1250 874 1608 1578 57 113 145 310 150 337 1
6 4 15 7 20 5 8 55 154 66 190 14 50 64 234 67 250 2 11 9 41 15 68 6 26 14
64 17 83 3 20 7 46 10 57 7 36 24 171 28 220 l4 47 -1364 0 c-750 0 -1364 -2
-1364 -5 0 -3 44 -60 98 -128 53 -67 111 -140 127 -161 17 -21 59 -76 95 -121
36 -45 77 -97 92 -116 14 -19 116 -149 226 -289 111 -140 199 -256 197 -258
-2 -2 -171 -3 -376 -4 -351 0 -374 1 -386 19 -8 10 -22 27 -31 38 -9 11 -40
49 -67 85 -28 36 -52 67 -55 70 -9 9 -112 139 -283 357 -92 117 -173 220 -182
230 -50 61 -495 629 -495 633 0 5 60 79 170 210 21 25 225 270 454 545 230
275 432 517 449 538 l33 39 374 -1 c206 0 377 0 379 -1 2 0 -18 -26 -45 -57
-27 -32 -56 -67 -66 -78 -9 -11 -159 -191 -333 -400 -174 -209 -330 -397 -348
-419 -18 -21 -47 -55 -64 -75 -18 -20 -33 -39 -33 -43 0 -5 630 -8 1400 -8
l1400 0 -5 48 c-23 201 -41 303 -87 487 -29 118 -115 389 -143 449 -7 17 -26
60 -40 96 -97 235 -312 597 -466 785 -223 270 -402 446 -634 622 -87 66 -283
195 -355 235 -25 14 -61 34 -80 45 -61 34 -85 47 -90 48 -3 1 -45 21 -95 44
-284 136 -668 255 -950 296 -23 3 -50 7 -60 9 -24 5 -136 18 -190 23 -53 4
-492 12 -497 8z m-314 -2118 c8 -3 11 -349 11 -1375 0 -754 -3 -1373 -7 -1377
-9 -9 -578 -8 -587 0 -3 4 -6 625 -6 1380 l0 1374 40 3 c60 4 535 0 549 -5z"/>
</g>
</svg>
